<svg viewBox="0 0 200 200" xmlns="http://www.w3.org/2000/svg">
    <g style="stroke: gray; stroke-width: 8; fill: none;">
        <!-- 四条线 -->
        <path d="M 10 10 L 40 10 L 40 30 L 40 30 L 10 30 L 10 10" />

        <!-- closepath矩形 -->
        <path d="M 60 10 L 90 10 L 90 30 L 60 30 Z" />
    </g>

    <!-- 相对moveto和lineto l m -->
    <g style="stroke: gray; fill: none;" transform="translate(0, 50)">
        <path d="M 10 10 L 20 10 L 20 30 M 40 40 L 55 35" style="stroke: black;" />
        <path d="M 10 10 l 10 0 l 0 20 m 20 10 l 15 -5" style="stroke: black;" />
    </g>

    <!-- 水平和垂直lineto h v -->
    <g style="stroke: gray; fill: none;" transform="translate(50, 50)">
        <path d="M 12 24 h 15 v 25 h -15 z" />
    </g>

    <!-- 路径快速表示 -->
    <g style="fill:none; stroke: black" transform="translate(100, 100)">
        <path d="M 30 30 L 55 5 L 80 30 L 55 55 Z" />
        <path d="M 30 30 L 55 5 80 30 55 55 Z" />
        <path d="M 30 30 55 5 80 30 55 55 Z" />
        <path d="m 30 30 l 25 -25 l 25 25 l -25 25 z" />
        <path d="m 30 30 l 25 -25 25 25 -25 25 z" />
        <path d="m 30 30 25 -25 25 25 -25 25 z" />
    </g>
</svg>